STARTFONT 2.1
COMMENT  
COMMENT  Copyright 1991 X Consortium
COMMENT  
COMMENT  WARNING:  This bdf file was generated from a font server using
COMMENT  fstobdf.  The resulting font is subject to the same copyright,
COMMENT  license, and trademark restrictions as the original font.  The
COMMENT  authors and distributors of fstobdf disclaim all liability for
COMMENT  misuse of the program or its output.
COMMENT  
FONT -Misc-Fixed-Medium-R-Normal--7-70-75-75-C-50-ISO8859-1
SIZE 7 75 75
FONTBOUNDINGBOX 6 7 0 -1
STARTPROPERTIES 26
FONTNAME_REGISTRY ""
FOUNDRY "Misc"
FAMILY_NAME "Fixed"
WEIGHT_NAME "Medium"
SLANT "R"
SETWIDTH_NAME "Normal"
ADD_STYLE_NAME ""
PIXEL_SIZE 7
POINT_SIZE 70
RESOLUTION_X 75
RESOLUTION_Y 75
SPACING "C"
AVERAGE_WIDTH 50
CHARSET_REGISTRY "ISO8859"
CHARSET_ENCODING "1"
UNDERLINE_POSITION 0
DESTINATION 1
COPYRIGHT "Copyright 1991 X Consortium"
FONT "-Misc-Fixed-Medium-R-Normal--7-70-75-75-C-50-ISO8859-1"
WEIGHT 10
RESOLUTION 103
X_HEIGHT 6
QUAD_WIDTH 5
DEFAULT_CHAR 0
FONT_ASCENT 6
FONT_DESCENT 1
ENDPROPERTIES
CHARS 224
STARTCHAR C000
ENCODING 0
SWIDTH 685 0
DWIDTH 5 0
BBX 5 7 0 -1
BITMAP
f0
f0
f0
f0
f0
f0
00
ENDCHAR
STARTCHAR C001
ENCODING 1
SWIDTH 685 0
DWIDTH 5 0
BBX 5 7 0 -1
BITMAP
00
20
70
f8
70
20
00
ENDCHAR
STARTCHAR C002
ENCODING 2
SWIDTH 685 0
DWIDTH 5 0
BBX 5 7 0 -1
BITMAP
50
a0
50
a0
50
a0
00
ENDCHAR
STARTCHAR C003
ENCODING 3
SWIDTH 685 0
DWIDTH 5 0
BBX 5 7 0 -1
BITMAP
a0
e0
a0
a0
70
20
20
ENDCHAR
STARTCHAR C004
ENCODING 4
SWIDTH 685 0
DWIDTH 5 0
BBX 5 7 0 -1
BITMAP
c0
80
c0
b0
20
30
20
ENDCHAR
STARTCHAR C005
ENCODING 5
SWIDTH 685 0
DWIDTH 5 0
BBX 5 7 0 -1
BITMAP
c0
80
c0
60
50
60
50
ENDCHAR
STARTCHAR C006
ENCODING 6
SWIDTH 685 0
DWIDTH 5 0
BBX 5 7 0 -1
BITMAP
80
80
c0
30
20
30
20
ENDCHAR
STARTCHAR C007
ENCODING 7
SWIDTH 685 0
DWIDTH 5 0
BBX 5 7 0 -1
BITMAP
20
50
20
00
00
00
00
ENDCHAR
STARTCHAR C010
ENCODING 8
SWIDTH 685 0
DWIDTH 5 0
BBX 5 7 0 -1
BITMAP
20
70
20
00
70
00
00
ENDCHAR
STARTCHAR C011
ENCODING 9
SWIDTH 685 0
DWIDTH 5 0
BBX 5 7 0 -1
BITMAP
90
d0
b0
90
20
20
30
ENDCHAR
STARTCHAR C012
ENCODING 10
SWIDTH 685 0
DWIDTH 5 0
BBX 5 7 0 -1
BITMAP
a0
a0
a0
40
70
20
20
ENDCHAR
STARTCHAR C013
ENCODING 11
SWIDTH 685 0
DWIDTH 5 0
BBX 5 7 0 -1
BITMAP
20
20
20
e0
00
00
00
ENDCHAR
STARTCHAR C014
ENCODING 12
SWIDTH 685 0
DWIDTH 5 0
BBX 5 7 0 -1
BITMAP
00
00
00
e0
20
20
20
ENDCHAR
STARTCHAR C015
ENCODING 13
SWIDTH 685 0
DWIDTH 5 0
BBX 5 7 0 -1
BITMAP
00
00
00
38
20
20
20
ENDCHAR
STARTCHAR C016
ENCODING 14
SWIDTH 685 0
DWIDTH 5 0
BBX 5 7 0 -1
BITMAP
20
20
20
38
00
00
00
ENDCHAR
STARTCHAR C017
ENCODING 15
SWIDTH 685 0
DWIDTH 5 0
BBX 5 7 0 -1
BITMAP
20
20
20
f8
20
20
20
ENDCHAR
STARTCHAR C020
ENCODING 16
SWIDTH 685 0
DWIDTH 5 0
BBX 5 7 0 -1
BITMAP
00
f8
00
00
00
00
00
ENDCHAR
STARTCHAR C021
ENCODING 17
SWIDTH 685 0
DWIDTH 5 0
BBX 6 7 0 -1
BITMAP
00
00
f8
00
00
00
00
ENDCHAR
STARTCHAR C022
ENCODING 18
SWIDTH 685 0
DWIDTH 5 0
BBX 5 7 0 -1
BITMAP
00
00
00
f8
00
00
00
ENDCHAR
STARTCHAR C023
ENCODING 19
SWIDTH 685 0
DWIDTH 5 0
BBX 5 7 0 -1
BITMAP
00
00
00
00
f8
00
00
ENDCHAR
STARTCHAR C024
ENCODING 20
SWIDTH 685 0
DWIDTH 5 0
BBX 5 7 0 -1
BITMAP
00
00
00
00
00
f8
00
ENDCHAR
STARTCHAR C025
ENCODING 21
SWIDTH 685 0
DWIDTH 5 0
BBX 5 7 0 -1
BITMAP
20
20
20
38
20
20
20
ENDCHAR
STARTCHAR C026
ENCODING 22
SWIDTH 685 0
DWIDTH 5 0
BBX 5 7 0 -1
BITMAP
20
20
20
e0
20
20
20
ENDCHAR
STARTCHAR C027
ENCODING 23
SWIDTH 685 0
DWIDTH 5 0
BBX 6 7 0 -1
BITMAP
20
20
20
f8
00
00
00
ENDCHAR
STARTCHAR C030
ENCODING 24
SWIDTH 685 0
DWIDTH 5 0
BBX 5 7 0 -1
BITMAP
00
00
00
f8
20
20
20
ENDCHAR
STARTCHAR C031
ENCODING 25
SWIDTH 685 0
DWIDTH 5 0
BBX 5 7 0 -1
BITMAP
20
20
20
20
20
20
20
ENDCHAR
STARTCHAR C032
ENCODING 26
SWIDTH 685 0
DWIDTH 5 0
BBX 5 7 0 -1
BITMAP
10
20
40
20
10
70
00
ENDCHAR
STARTCHAR C033
ENCODING 27
SWIDTH 685 0
DWIDTH 5 0
BBX 5 7 0 -1
BITMAP
40
20
10
20
40
70
00
ENDCHAR
STARTCHAR C034
ENCODING 28
SWIDTH 685 0
DWIDTH 5 0
BBX 5 7 0 -1
BITMAP
00
00
70
50
50
50
00
ENDCHAR
STARTCHAR C035
ENCODING 29
SWIDTH 685 0
DWIDTH 5 0
BBX 5 7 0 -1
BITMAP
00
10
70
20
70
40
00
ENDCHAR
STARTCHAR C036
ENCODING 30
SWIDTH 685 0
DWIDTH 5 0
BBX 5 7 0 -1
BITMAP
00
30
40
e0
40
b0
00
ENDCHAR
STARTCHAR C037
ENCODING 31
SWIDTH 685 0
DWIDTH 5 0
BBX 5 7 0 -1
BITMAP
00
00
00
20
00
00
00
ENDCHAR
STARTCHAR space
ENCODING 32
SWIDTH 685 0
DWIDTH 5 0
BBX 5 7 0 -1
BITMAP
00
00
00
00
00
00
00
ENDCHAR
STARTCHAR exclam
ENCODING 33
SWIDTH 685 0
DWIDTH 5 0
BBX 5 7 0 -1
BITMAP
20
20
20
20
00
20
00
ENDCHAR
STARTCHAR quotedbl
ENCODING 34
SWIDTH 685 0
DWIDTH 5 0
BBX 5 7 0 -1
BITMAP
50
50
50
00
00
00
00
ENDCHAR
STARTCHAR numbersign
ENCODING 35
SWIDTH 685 0
DWIDTH 5 0
BBX 5 7 0 -1
BITMAP
00
50
f8
50
f8
50
00
ENDCHAR
STARTCHAR dollar
ENCODING 36
SWIDTH 685 0
DWIDTH 5 0
BBX 5 7 0 -1
BITMAP
00
70
a0
70
28
70
00
ENDCHAR
STARTCHAR percent
ENCODING 37
SWIDTH 685 0
DWIDTH 5 0
BBX 5 7 0 -1
BITMAP
80
90
20
40
90
10
00
ENDCHAR
STARTCHAR ampersand
ENCODING 38
SWIDTH 685 0
DWIDTH 5 0
BBX 5 7 0 -1
BITMAP
00
40
a0
40
a0
50
00
ENDCHAR
STARTCHAR apostrophe
ENCODING 39
SWIDTH 685 0
DWIDTH 5 0
BBX 5 7 0 -1
BITMAP
60
40
80
00
00
00
00
ENDCHAR
STARTCHAR parenleft
ENCODING 40
SWIDTH 685 0
DWIDTH 5 0
BBX 5 7 0 -1
BITMAP
20
40
40
40
40
20
00
ENDCHAR
STARTCHAR parenright
ENCODING 41
SWIDTH 685 0
DWIDTH 5 0
BBX 5 7 0 -1
BITMAP
40
20
20
20
20
40
00
ENDCHAR
STARTCHAR asterisk
ENCODING 42
SWIDTH 685 0
DWIDTH 5 0
BBX 5 7 0 -1
BITMAP
00
a0
40
e0
40
a0
00
ENDCHAR
STARTCHAR plus
ENCODING 43
SWIDTH 685 0
DWIDTH 5 0
BBX 5 7 0 -1
BITMAP
00
20
20
f8
20
20
00
ENDCHAR
STARTCHAR comma
ENCODING 44
SWIDTH 685 0
DWIDTH 5 0
BBX 5 7 0 -1
BITMAP
00
00
00
00
60
40
80
ENDCHAR
STARTCHAR minus
ENCODING 45
SWIDTH 685 0
DWIDTH 5 0
BBX 5 7 0 -1
BITMAP
00
00
00
f0
00
00
00
ENDCHAR
STARTCHAR period
ENCODING 46
SWIDTH 685 0
DWIDTH 5 0
BBX 5 7 0 -1
BITMAP
00
00
00
00
60
60
00
ENDCHAR
STARTCHAR slash
ENCODING 47
SWIDTH 685 0
DWIDTH 5 0
BBX 5 7 0 -1
BITMAP
00
10
20
40
80
00
00
ENDCHAR
STARTCHAR 0
ENCODING 48
SWIDTH 685 0
DWIDTH 5 0
BBX 5 7 0 -1
BITMAP
40
a0
a0
a0
a0
40
00
ENDCHAR
STARTCHAR 1
ENCODING 49
SWIDTH 685 0
DWIDTH 5 0
BBX 5 7 0 -1
BITMAP
40
c0
40
40
40
e0
00
ENDCHAR
STARTCHAR 2
ENCODING 50
SWIDTH 685 0
DWIDTH 5 0
BBX 5 7 0 -1
BITMAP
60
90
10
20
40
f0
00
ENDCHAR
STARTCHAR 3
ENCODING 51
SWIDTH 685 0
DWIDTH 5 0
BBX 5 7 0 -1
BITMAP
f0
10
60
10
90
60
00
ENDCHAR
STARTCHAR 4
ENCODING 52
SWIDTH 685 0
DWIDTH 5 0
BBX 5 7 0 -1
BITMAP
20
60
a0
f0
20
20
00
ENDCHAR
STARTCHAR 5
ENCODING 53
SWIDTH 685 0
DWIDTH 5 0
BBX 5 7 0 -1
BITMAP
f0
80
e0
10
90
60
00
ENDCHAR
STARTCHAR 6
ENCODING 54
SWIDTH 685 0
DWIDTH 5 0
BBX 5 7 0 -1
BITMAP
60
80
e0
90
90
60
00
ENDCHAR
STARTCHAR 7
ENCODING 55
SWIDTH 685 0
DWIDTH 5 0
BBX 5 7 0 -1
BITMAP
f0
10
20
20
40
40
00
ENDCHAR
STARTCHAR 8
ENCODING 56
SWIDTH 685 0
DWIDTH 5 0
BBX 5 7 0 -1
BITMAP
60
90
60
90
90
60
00
ENDCHAR
STARTCHAR 9
ENCODING 57
SWIDTH 685 0
DWIDTH 5 0
BBX 5 7 0 -1
BITMAP
60
90
90
70
10
60
00
ENDCHAR
STARTCHAR colon
ENCODING 58
SWIDTH 685 0
DWIDTH 5 0
BBX 5 7 0 -1
BITMAP
00
60
60
00
60
60
00
ENDCHAR
STARTCHAR semicolon
ENCODING 59
SWIDTH 685 0
DWIDTH 5 0
BBX 5 7 0 -1
BITMAP
00
60
60
00
60
40
80
ENDCHAR
STARTCHAR less
ENCODING 60
SWIDTH 685 0
DWIDTH 5 0
BBX 5 7 0 -1
BITMAP
00
20
40
80
40
20
00
ENDCHAR
STARTCHAR equal
ENCODING 61
SWIDTH 685 0
DWIDTH 5 0
BBX 5 7 0 -1
BITMAP
00
00
f0
00
f0
00
00
ENDCHAR
STARTCHAR greater
ENCODING 62
SWIDTH 685 0
DWIDTH 5 0
BBX 5 7 0 -1
BITMAP
00
80
40
20
40
80
00
ENDCHAR
STARTCHAR question
ENCODING 63
SWIDTH 685 0
DWIDTH 5 0
BBX 5 7 0 -1
BITMAP
40
a0
20
40
00
40
00
ENDCHAR
STARTCHAR at
ENCODING 64
SWIDTH 685 0
DWIDTH 5 0
BBX 5 7 0 -1
BITMAP
60
90
b0
b0
80
60
00
ENDCHAR
STARTCHAR A
ENCODING 65
SWIDTH 685 0
DWIDTH 5 0
BBX 5 7 0 -1
BITMAP
60
90
90
f0
90
90
00
ENDCHAR
STARTCHAR B
ENCODING 66
SWIDTH 685 0
DWIDTH 5 0
BBX 5 7 0 -1
BITMAP
e0
90
e0
90
90
e0
00
ENDCHAR
STARTCHAR C
ENCODING 67
SWIDTH 685 0
DWIDTH 5 0
BBX 5 7 0 -1
BITMAP
60
90
80
80
90
60
00
ENDCHAR
STARTCHAR D
ENCODING 68
SWIDTH 685 0
DWIDTH 5 0
BBX 5 7 0 -1
BITMAP
e0
90
90
90
90
e0
00
ENDCHAR
STARTCHAR E
ENCODING 69
SWIDTH 685 0
DWIDTH 5 0
BBX 5 7 0 -1
BITMAP
f0
80
e0
80
80
f0
00
ENDCHAR
STARTCHAR F
ENCODING 70
SWIDTH 685 0
DWIDTH 5 0
BBX 5 7 0 -1
BITMAP
f0
80
e0
80
80
80
00
ENDCHAR
STARTCHAR G
ENCODING 71
SWIDTH 685 0
DWIDTH 5 0
BBX 5 7 0 -1
BITMAP
60
90
80
b0
90
70
00
ENDCHAR
STARTCHAR H
ENCODING 72
SWIDTH 685 0
DWIDTH 5 0
BBX 5 7 0 -1
BITMAP
90
90
f0
90
90
90
00
ENDCHAR
STARTCHAR I
ENCODING 73
SWIDTH 685 0
DWIDTH 5 0
BBX 5 7 0 -1
BITMAP
e0
40
40
40
40
e0
00
ENDCHAR
STARTCHAR J
ENCODING 74
SWIDTH 685 0
DWIDTH 5 0
BBX 5 7 0 -1
BITMAP
10
10
10
10
90
60
00
ENDCHAR
STARTCHAR K
ENCODING 75
SWIDTH 685 0
DWIDTH 5 0
BBX 5 7 0 -1
BITMAP
90
a0
c0
c0
a0
90
00
ENDCHAR
STARTCHAR L
ENCODING 76
SWIDTH 685 0
DWIDTH 5 0
BBX 5 7 0 -1
BITMAP
80
80
80
80
80
f0
00
ENDCHAR
STARTCHAR M
ENCODING 77
SWIDTH 685 0
DWIDTH 5 0
BBX 5 7 0 -1
BITMAP
90
f0
f0
90
90
90
00
ENDCHAR
STARTCHAR N
ENCODING 78
SWIDTH 685 0
DWIDTH 5 0
BBX 5 7 0 -1
BITMAP
90
d0
d0
b0
b0
90
00
ENDCHAR
STARTCHAR O
ENCODING 79
SWIDTH 685 0
DWIDTH 5 0
BBX 5 7 0 -1
BITMAP
60
90
90
90
90
60
00
ENDCHAR
STARTCHAR P
ENCODING 80
SWIDTH 685 0
DWIDTH 5 0
BBX 5 7 0 -1
BITMAP
e0
90
90
e0
80
80
00
ENDCHAR
STARTCHAR Q
ENCODING 81
SWIDTH 685 0
DWIDTH 5 0
BBX 5 7 0 -1
BITMAP
60
90
90
90
d0
60
10
ENDCHAR
STARTCHAR R
ENCODING 82
SWIDTH 685 0
DWIDTH 5 0
BBX 5 7 0 -1
BITMAP
e0
90
90
e0
a0
90
00
ENDCHAR
STARTCHAR S
ENCODING 83
SWIDTH 685 0
DWIDTH 5 0
BBX 5 7 0 -1
BITMAP
60
90
40
20
90
60
00
ENDCHAR
STARTCHAR T
ENCODING 84
SWIDTH 685 0
DWIDTH 5 0
BBX 5 7 0 -1
BITMAP
e0
40
40
40
40
40
00
ENDCHAR
STARTCHAR U
ENCODING 85
SWIDTH 685 0
DWIDTH 5 0
BBX 5 7 0 -1
BITMAP
90
90
90
90
90
60
00
ENDCHAR
STARTCHAR V
ENCODING 86
SWIDTH 685 0
DWIDTH 5 0
BBX 5 7 0 -1
BITMAP
90
90
90
90
60
60
00
ENDCHAR
STARTCHAR W
ENCODING 87
SWIDTH 685 0
DWIDTH 5 0
BBX 5 7 0 -1
BITMAP
90
90
90
f0
f0
90
00
ENDCHAR
STARTCHAR X
ENCODING 88
SWIDTH 685 0
DWIDTH 5 0
BBX 5 7 0 -1
BITMAP
90
90
60
60
90
90
00
ENDCHAR
STARTCHAR Y
ENCODING 89
SWIDTH 685 0
DWIDTH 5 0
BBX 5 7 0 -1
BITMAP
a0
a0
a0
40
40
40
00
ENDCHAR
STARTCHAR Z
ENCODING 90
SWIDTH 685 0
DWIDTH 5 0
BBX 5 7 0 -1
BITMAP
f0
10
20
40
80
f0
00
ENDCHAR
STARTCHAR bracketleft
ENCODING 91
SWIDTH 685 0
DWIDTH 5 0
BBX 5 7 0 -1
BITMAP
e0
80
80
80
80
e0
00
ENDCHAR
STARTCHAR backslash
ENCODING 92
SWIDTH 685 0
DWIDTH 5 0
BBX 5 7 0 -1
BITMAP
00
80
40
20
10
00
00
ENDCHAR
STARTCHAR bracketright
ENCODING 93
SWIDTH 685 0
DWIDTH 5 0
BBX 5 7 0 -1
BITMAP
e0
20
20
20
20
e0
00
ENDCHAR
STARTCHAR asciicircum
ENCODING 94
SWIDTH 685 0
DWIDTH 5 0
BBX 5 7 0 -1
BITMAP
40
a0
00
00
00
00
00
ENDCHAR
STARTCHAR underscore
ENCODING 95
SWIDTH 685 0
DWIDTH 5 0
BBX 5 7 0 -1
BITMAP
00
00
00
00
00
f0
00
ENDCHAR
STARTCHAR grave
ENCODING 96
SWIDTH 685 0
DWIDTH 5 0
BBX 5 7 0 -1
BITMAP
c0
40
20
00
00
00
00
ENDCHAR
STARTCHAR a
ENCODING 97
SWIDTH 685 0
DWIDTH 5 0
BBX 5 7 0 -1
BITMAP
00
00
70
90
b0
50
00
ENDCHAR
STARTCHAR b
ENCODING 98
SWIDTH 685 0
DWIDTH 5 0
BBX 5 7 0 -1
BITMAP
80
80
e0
90
90
e0
00
ENDCHAR
STARTCHAR c
ENCODING 99
SWIDTH 685 0
DWIDTH 5 0
BBX 5 7 0 -1
BITMAP
00
00
60
80
80
60
00
ENDCHAR
STARTCHAR d
ENCODING 100
SWIDTH 685 0
DWIDTH 5 0
BBX 5 7 0 -1
BITMAP
10
10
70
90
90
70
00
ENDCHAR
STARTCHAR e
ENCODING 101
SWIDTH 685 0
DWIDTH 5 0
BBX 5 7 0 -1
BITMAP
00
00
60
b0
c0
60
00
ENDCHAR
STARTCHAR f
ENCODING 102
SWIDTH 685 0
DWIDTH 5 0
BBX 5 7 0 -1
BITMAP
20
50
40
e0
40
40
00
ENDCHAR
STARTCHAR g
ENCODING 103
SWIDTH 685 0
DWIDTH 5 0
BBX 5 7 0 -1
BITMAP
00
00
70
90
60
80
70
ENDCHAR
STARTCHAR h
ENCODING 104
SWIDTH 685 0
DWIDTH 5 0
BBX 5 7 0 -1
BITMAP
80
80
e0
90
90
90
00
ENDCHAR
STARTCHAR i
ENCODING 105
SWIDTH 685 0
DWIDTH 5 0
BBX 5 7 0 -1
BITMAP
40
00
c0
40
40
e0
00
ENDCHAR
STARTCHAR j
ENCODING 106
SWIDTH 685 0
DWIDTH 5 0
BBX 5 7 0 -1
BITMAP
20
00
20
20
20
a0
40
ENDCHAR
STARTCHAR k
ENCODING 107
SWIDTH 685 0
DWIDTH 5 0
BBX 5 7 0 -1
BITMAP
80
80
a0
c0
a0
90
00
ENDCHAR
STARTCHAR l
ENCODING 108
SWIDTH 685 0
DWIDTH 5 0
BBX 5 7 0 -1
BITMAP
c0
40
40
40
40
e0
00
ENDCHAR
STARTCHAR m
ENCODING 109
SWIDTH 685 0
DWIDTH 5 0
BBX 5 7 0 -1
BITMAP
00
00
a0
f0
90
90
00
ENDCHAR
STARTCHAR n
ENCODING 110
SWIDTH 685 0
DWIDTH 5 0
BBX 5 7 0 -1
BITMAP
00
00
e0
90
90
90
00
ENDCHAR
STARTCHAR o
ENCODING 111
SWIDTH 685 0
DWIDTH 5 0
BBX 5 7 0 -1
BITMAP
00
00
60
90
90
60
00
ENDCHAR
STARTCHAR p
ENCODING 112
SWIDTH 685 0
DWIDTH 5 0
BBX 5 7 0 -1
BITMAP
00
00
e0
90
90
e0
80
ENDCHAR
STARTCHAR q
ENCODING 113
SWIDTH 685 0
DWIDTH 5 0
BBX 5 7 0 -1
BITMAP
00
00
70
90
90
70
10
ENDCHAR
STARTCHAR r
ENCODING 114
SWIDTH 685 0
DWIDTH 5 0
BBX 5 7 0 -1
BITMAP
00
00
e0
90
80
80
00
ENDCHAR
STARTCHAR s
ENCODING 115
SWIDTH 685 0
DWIDTH 5 0
BBX 6 7 0 -1
BITMAP
00
00
70
c0
30
e0
00
ENDCHAR
STARTCHAR t
ENCODING 116
SWIDTH 685 0
DWIDTH 5 0
BBX 5 7 0 -1
BITMAP
40
40
e0
40
40
30
00
ENDCHAR
STARTCHAR u
ENCODING 117
SWIDTH 685 0
DWIDTH 5 0
BBX 5 7 0 -1
BITMAP
00
00
90
90
90
70
00
ENDCHAR
STARTCHAR v
ENCODING 118
SWIDTH 685 0
DWIDTH 5 0
BBX 5 7 0 -1
BITMAP
00
00
a0
a0
a0
40
00
ENDCHAR
STARTCHAR w
ENCODING 119
SWIDTH 685 0
DWIDTH 5 0
BBX 5 7 0 -1
BITMAP
00
00
90
90
f0
f0
00
ENDCHAR
STARTCHAR x
ENCODING 120
SWIDTH 685 0
DWIDTH 5 0
BBX 5 7 0 -1
BITMAP
00
00
90
60
60
90
00
ENDCHAR
STARTCHAR y
ENCODING 121
SWIDTH 685 0
DWIDTH 5 0
BBX 5 7 0 -1
BITMAP
00
00
90
90
50
20
40
ENDCHAR
STARTCHAR z
ENCODING 122
SWIDTH 685 0
DWIDTH 5 0
BBX 5 7 0 -1
BITMAP
00
00
f0
20
40
f0
00
ENDCHAR
STARTCHAR braceleft
ENCODING 123
SWIDTH 685 0
DWIDTH 5 0
BBX 5 7 0 -1
BITMAP
20
40
c0
40
40
20
00
ENDCHAR
STARTCHAR bar
ENCODING 124
SWIDTH 685 0
DWIDTH 5 0
BBX 5 7 0 -1
BITMAP
40
40
40
40
40
40
00
ENDCHAR
STARTCHAR braceright
ENCODING 125
SWIDTH 685 0
DWIDTH 5 0
BBX 6 7 0 -1
BITMAP
80
40
60
40
40
80
00
ENDCHAR
STARTCHAR asciitilde
ENCODING 126
SWIDTH 685 0
DWIDTH 5 0
BBX 5 7 0 -1
BITMAP
50
a0
00
00
00
00
00
ENDCHAR
STARTCHAR C177
ENCODING 127
SWIDTH 685 0
DWIDTH 5 0
BBX 5 7 0 -1
BITMAP
00
00
00
00
00
00
00
ENDCHAR
STARTCHAR nobreakspace
ENCODING 160
SWIDTH 685 0
DWIDTH 5 0
BBX 5 7 0 -1
BITMAP
00
00
00
00
00
00
00
ENDCHAR
STARTCHAR exclamdown
ENCODING 161
SWIDTH 685 0
DWIDTH 5 0
BBX 5 7 0 -1
BITMAP
20
00
20
20
20
20
00
ENDCHAR
STARTCHAR cent
ENCODING 162
SWIDTH 685 0
DWIDTH 5 0
BBX 5 7 0 -1
BITMAP
00
20
70
a0
a0
70
20
ENDCHAR
STARTCHAR sterling
ENCODING 163
SWIDTH 685 0
DWIDTH 5 0
BBX 5 7 0 -1
BITMAP
00
30
40
e0
40
b0
00
ENDCHAR
STARTCHAR currency
ENCODING 164
SWIDTH 685 0
DWIDTH 5 0
BBX 5 7 0 -1
BITMAP
00
88
70
50
70
88
00
ENDCHAR
STARTCHAR yen
ENCODING 165
SWIDTH 685 0
DWIDTH 5 0
BBX 5 7 0 -1
BITMAP
a0
a0
40
e0
40
40
00
ENDCHAR
STARTCHAR brokenbar
ENCODING 166
SWIDTH 685 0
DWIDTH 5 0
BBX 5 7 0 -1
BITMAP
00
20
20
00
20
20
00
ENDCHAR
STARTCHAR section
ENCODING 167
SWIDTH 685 0
DWIDTH 5 0
BBX 5 7 0 -1
BITMAP
30
40
60
50
30
10
60
ENDCHAR
STARTCHAR diaeresis
ENCODING 168
SWIDTH 685 0
DWIDTH 5 0
BBX 5 7 0 -1
BITMAP
50
00
00
00
00
00
00
ENDCHAR
STARTCHAR copyright
ENCODING 169
SWIDTH 685 0
DWIDTH 5 0
BBX 5 7 0 -1
BITMAP
70
88
a8
c8
a8
88
70
ENDCHAR
STARTCHAR ordfeminine
ENCODING 170
SWIDTH 685 0
DWIDTH 5 0
BBX 5 7 0 -1
BITMAP
60
a0
60
00
00
00
00
ENDCHAR
STARTCHAR guillemotleft
ENCODING 171
SWIDTH 685 0
DWIDTH 5 0
BBX 5 7 0 -1
BITMAP
00
00
48
90
48
00
00
ENDCHAR
STARTCHAR notsign
ENCODING 172
SWIDTH 685 0
DWIDTH 5 0
BBX 5 7 0 -1
BITMAP
00
00
f0
10
00
00
00
ENDCHAR
STARTCHAR hyphen
ENCODING 173
SWIDTH 685 0
DWIDTH 5 0
BBX 5 7 0 -1
BITMAP
00
00
00
f0
00
00
00
ENDCHAR
STARTCHAR registered
ENCODING 174
SWIDTH 685 0
DWIDTH 5 0
BBX 5 7 0 -1
BITMAP
70
88
e8
c8
c8
88
70
ENDCHAR
STARTCHAR macron
ENCODING 175
SWIDTH 685 0
DWIDTH 5 0
BBX 5 7 0 -1
BITMAP
f0
00
00
00
00
00
00
ENDCHAR
STARTCHAR degree
ENCODING 176
SWIDTH 685 0
DWIDTH 5 0
BBX 5 7 0 -1
BITMAP
20
50
20
00
00
00
00
ENDCHAR
STARTCHAR plusminus
ENCODING 177
SWIDTH 685 0
DWIDTH 5 0
BBX 5 7 0 -1
BITMAP
20
20
f8
20
20
f8
00
ENDCHAR
STARTCHAR twosuperior
ENCODING 178
SWIDTH 685 0
DWIDTH 5 0
BBX 5 7 0 -1
BITMAP
60
20
40
60
00
00
00
ENDCHAR
STARTCHAR threesuperior
ENCODING 179
SWIDTH 685 0
DWIDTH 5 0
BBX 5 7 0 -1
BITMAP
60
60
20
60
00
00
00
ENDCHAR
STARTCHAR acute
ENCODING 180
SWIDTH 685 0
DWIDTH 5 0
BBX 5 7 0 -1
BITMAP
20
40
00
00
00
00
00
ENDCHAR
STARTCHAR mu
ENCODING 181
SWIDTH 685 0
DWIDTH 5 0
BBX 5 7 0 -1
BITMAP
00
00
90
90
90
e0
80
ENDCHAR
STARTCHAR paragraph
ENCODING 182
SWIDTH 685 0
DWIDTH 5 0
BBX 5 7 0 -1
BITMAP
70
d0
d0
50
50
50
00
ENDCHAR
STARTCHAR periodcentered
ENCODING 183
SWIDTH 685 0
DWIDTH 5 0
BBX 5 7 0 -1
BITMAP
00
60
60
00
00
00
00
ENDCHAR
STARTCHAR cedilla
ENCODING 184
SWIDTH 685 0
DWIDTH 5 0
BBX 5 7 0 -1
BITMAP
00
00
00
00
00
20
40
ENDCHAR
STARTCHAR onesuperior
ENCODING 185
SWIDTH 685 0
DWIDTH 5 0
BBX 5 7 0 -1
BITMAP
20
60
20
70
00
00
00
ENDCHAR
STARTCHAR masculine
ENCODING 186
SWIDTH 685 0
DWIDTH 5 0
BBX 5 7 0 -1
BITMAP
40
a0
40
00
00
00
00
ENDCHAR
STARTCHAR guillemotright
ENCODING 187
SWIDTH 685 0
DWIDTH 5 0
BBX 5 7 0 -1
BITMAP
00
00
90
48
90
00
00
ENDCHAR
STARTCHAR onequarter
ENCODING 188
SWIDTH 685 0
DWIDTH 5 0
BBX 5 7 0 -1
BITMAP
80
80
80
90
30
70
10
ENDCHAR
STARTCHAR onehalf
ENCODING 189
SWIDTH 685 0
DWIDTH 5 0
BBX 5 7 0 -1
BITMAP
80
80
80
b0
10
20
30
ENDCHAR
STARTCHAR threequarters
ENCODING 190
SWIDTH 685 0
DWIDTH 5 0
BBX 5 7 0 -1
BITMAP
c0
c0
40
d0
30
70
10
ENDCHAR
STARTCHAR questiondown
ENCODING 191
SWIDTH 685 0
DWIDTH 5 0
BBX 5 7 0 -1
BITMAP
40
00
40
80
a0
40
00
ENDCHAR
STARTCHAR Agrave
ENCODING 192
SWIDTH 685 0
DWIDTH 5 0
BBX 5 7 0 -1
BITMAP
60
90
90
f0
90
90
00
ENDCHAR
STARTCHAR Aacute
ENCODING 193
SWIDTH 685 0
DWIDTH 5 0
BBX 5 7 0 -1
BITMAP
60
90
90
f0
90
90
00
ENDCHAR
STARTCHAR Acircumflex
ENCODING 194
SWIDTH 685 0
DWIDTH 5 0
BBX 5 7 0 -1
BITMAP
60
90
90
f0
90
90
00
ENDCHAR
STARTCHAR Atilde
ENCODING 195
SWIDTH 685 0
DWIDTH 5 0
BBX 5 7 0 -1
BITMAP
60
90
90
f0
90
90
00
ENDCHAR
STARTCHAR Adiaeresis
ENCODING 196
SWIDTH 685 0
DWIDTH 5 0
BBX 5 7 0 -1
BITMAP
60
90
90
f0
90
90
00
ENDCHAR
STARTCHAR Aring
ENCODING 197
SWIDTH 685 0
DWIDTH 5 0
BBX 5 7 0 -1
BITMAP
60
90
90
f0
90
90
00
ENDCHAR
STARTCHAR AE
ENCODING 198
SWIDTH 685 0
DWIDTH 5 0
BBX 5 7 0 -1
BITMAP
70
a0
b0
e0
a0
b0
00
ENDCHAR
STARTCHAR Ccedilla
ENCODING 199
SWIDTH 685 0
DWIDTH 5 0
BBX 5 7 0 -1
BITMAP
60
90
80
80
90
60
40
ENDCHAR
STARTCHAR Egrave
ENCODING 200
SWIDTH 685 0
DWIDTH 5 0
BBX 5 7 0 -1
BITMAP
f0
80
e0
80
80
f0
00
ENDCHAR
STARTCHAR Eacute
ENCODING 201
SWIDTH 685 0
DWIDTH 5 0
BBX 5 7 0 -1
BITMAP
f0
80
e0
80
80
f0
00
ENDCHAR
STARTCHAR Ecircumflex
ENCODING 202
SWIDTH 685 0
DWIDTH 5 0
BBX 5 7 0 -1
BITMAP
f0
80
e0
80
80
f0
00
ENDCHAR
STARTCHAR Ediaeresis
ENCODING 203
SWIDTH 685 0
DWIDTH 5 0
BBX 5 7 0 -1
BITMAP
f0
80
e0
80
80
f0
00
ENDCHAR
STARTCHAR Igrave
ENCODING 204
SWIDTH 685 0
DWIDTH 5 0
BBX 5 7 0 -1
BITMAP
e0
40
40
40
40
e0
00
ENDCHAR
STARTCHAR Iacute
ENCODING 205
SWIDTH 685 0
DWIDTH 5 0
BBX 5 7 0 -1
BITMAP
e0
40
40
40
40
e0
00
ENDCHAR
STARTCHAR Icircumflex
ENCODING 206
SWIDTH 685 0
DWIDTH 5 0
BBX 5 7 0 -1
BITMAP
e0
40
40
40
40
e0
00
ENDCHAR
STARTCHAR Idiaeresis
ENCODING 207
SWIDTH 685 0
DWIDTH 5 0
BBX 5 7 0 -1
BITMAP
e0
40
40
40
40
e0
00
ENDCHAR
STARTCHAR ETH
ENCODING 208
SWIDTH 685 0
DWIDTH 5 0
BBX 5 7 0 -1
BITMAP
e0
50
d0
50
50
e0
00
ENDCHAR
STARTCHAR Ntilde
ENCODING 209
SWIDTH 685 0
DWIDTH 5 0
BBX 5 7 0 -1
BITMAP
b0
90
d0
b0
b0
90
00
ENDCHAR
STARTCHAR Ograve
ENCODING 210
SWIDTH 685 0
DWIDTH 5 0
BBX 5 7 0 -1
BITMAP
60
90
90
90
90
60
00
ENDCHAR
STARTCHAR Oacute
ENCODING 211
SWIDTH 685 0
DWIDTH 5 0
BBX 5 7 0 -1
BITMAP
60
90
90
90
90
60
00
ENDCHAR
STARTCHAR Ocircumflex
ENCODING 212
SWIDTH 685 0
DWIDTH 5 0
BBX 5 7 0 -1
BITMAP
60
90
90
90
90
60
00
ENDCHAR
STARTCHAR Otilde
ENCODING 213
SWIDTH 685 0
DWIDTH 5 0
BBX 5 7 0 -1
BITMAP
60
90
90
90
90
60
00
ENDCHAR
STARTCHAR Odiaeresis
ENCODING 214
SWIDTH 685 0
DWIDTH 5 0
BBX 5 7 0 -1
BITMAP
60
90
90
90
90
60
00
ENDCHAR
STARTCHAR multiply
ENCODING 215
SWIDTH 685 0
DWIDTH 5 0
BBX 5 7 0 -1
BITMAP
00
00
90
60
60
90
00
ENDCHAR
STARTCHAR Ooblique
ENCODING 216
SWIDTH 685 0
DWIDTH 5 0
BBX 5 7 0 -1
BITMAP
70
b0
b0
d0
d0
e0
00
ENDCHAR
STARTCHAR Ugrave
ENCODING 217
SWIDTH 685 0
DWIDTH 5 0
BBX 5 7 0 -1
BITMAP
90
90
90
90
90
60
00
ENDCHAR
STARTCHAR Uacute
ENCODING 218
SWIDTH 685 0
DWIDTH 5 0
BBX 5 7 0 -1
BITMAP
90
90
90
90
90
60
00
ENDCHAR
STARTCHAR Ucircumflex
ENCODING 219
SWIDTH 685 0
DWIDTH 5 0
BBX 5 7 0 -1
BITMAP
90
90
90
90
90
60
00
ENDCHAR
STARTCHAR Udiaeresis
ENCODING 220
SWIDTH 685 0
DWIDTH 5 0
BBX 5 7 0 -1
BITMAP
90
90
90
90
90
60
00
ENDCHAR
STARTCHAR Yacute
ENCODING 221
SWIDTH 685 0
DWIDTH 5 0
BBX 5 7 0 -1
BITMAP
a0
a0
a0
40
40
40
00
ENDCHAR
STARTCHAR THORN
ENCODING 222
SWIDTH 685 0
DWIDTH 5 0
BBX 5 7 0 -1
BITMAP
80
e0
90
e0
80
80
00
ENDCHAR
STARTCHAR ssharp
ENCODING 223
SWIDTH 685 0
DWIDTH 5 0
BBX 5 7 0 -1
BITMAP
60
90
e0
90
d0
a0
80
ENDCHAR
STARTCHAR agrave
ENCODING 224
SWIDTH 685 0
DWIDTH 5 0
BBX 5 7 0 -1
BITMAP
40
20
70
90
b0
50
00
ENDCHAR
STARTCHAR aacute
ENCODING 225
SWIDTH 685 0
DWIDTH 5 0
BBX 5 7 0 -1
BITMAP
20
40
70
90
b0
50
00
ENDCHAR
STARTCHAR acircumflex
ENCODING 226
SWIDTH 685 0
DWIDTH 5 0
BBX 5 7 0 -1
BITMAP
20
50
70
90
b0
50
00
ENDCHAR
STARTCHAR atilde
ENCODING 227
SWIDTH 685 0
DWIDTH 5 0
BBX 5 7 0 -1
BITMAP
50
a0
70
90
b0
50
00
ENDCHAR
STARTCHAR adiaeresis
ENCODING 228
SWIDTH 685 0
DWIDTH 5 0
BBX 5 7 0 -1
BITMAP
50
00
70
90
b0
50
00
ENDCHAR
STARTCHAR aring
ENCODING 229
SWIDTH 685 0
DWIDTH 5 0
BBX 5 7 0 -1
BITMAP
60
60
70
90
b0
50
00
ENDCHAR
STARTCHAR ae
ENCODING 230
SWIDTH 685 0
DWIDTH 5 0
BBX 5 7 0 -1
BITMAP
00
00
70
b0
a0
70
00
ENDCHAR
STARTCHAR ccedilla
ENCODING 231
SWIDTH 685 0
DWIDTH 5 0
BBX 5 7 0 -1
BITMAP
00
00
60
80
80
60
40
ENDCHAR
STARTCHAR egrave
ENCODING 232
SWIDTH 685 0
DWIDTH 5 0
BBX 5 7 0 -1
BITMAP
40
20
60
b0
c0
60
00
ENDCHAR
STARTCHAR eacute
ENCODING 233
SWIDTH 685 0
DWIDTH 5 0
BBX 5 7 0 -1
BITMAP
20
40
60
b0
c0
60
00
ENDCHAR
STARTCHAR ecircumflex
ENCODING 234
SWIDTH 685 0
DWIDTH 5 0
BBX 5 7 0 -1
BITMAP
40
a0
60
b0
c0
60
00
ENDCHAR
STARTCHAR ediaeresis
ENCODING 235
SWIDTH 685 0
DWIDTH 5 0
BBX 5 7 0 -1
BITMAP
a0
00
60
b0
c0
60
00
ENDCHAR
STARTCHAR igrave
ENCODING 236
SWIDTH 685 0
DWIDTH 5 0
BBX 5 7 0 -1
BITMAP
80
40
c0
40
40
e0
00
ENDCHAR
STARTCHAR iacute
ENCODING 237
SWIDTH 685 0
DWIDTH 5 0
BBX 5 7 0 -1
BITMAP
40
80
c0
40
40
e0
00
ENDCHAR
STARTCHAR icircumflex
ENCODING 238
SWIDTH 685 0
DWIDTH 5 0
BBX 5 7 0 -1
BITMAP
40
a0
c0
40
40
e0
00
ENDCHAR
STARTCHAR idiaeresis
ENCODING 239
SWIDTH 685 0
DWIDTH 5 0
BBX 5 7 0 -1
BITMAP
a0
00
c0
40
40
e0
00
ENDCHAR
STARTCHAR eth
ENCODING 240
SWIDTH 685 0
DWIDTH 5 0
BBX 5 7 0 -1
BITMAP
40
30
60
90
90
60
00
ENDCHAR
STARTCHAR ntilde
ENCODING 241
SWIDTH 685 0
DWIDTH 5 0
BBX 5 7 0 -1
BITMAP
50
a0
e0
90
90
90
00
ENDCHAR
STARTCHAR ograve
ENCODING 242
SWIDTH 685 0
DWIDTH 5 0
BBX 5 7 0 -1
BITMAP
40
20
60
90
90
60
00
ENDCHAR
STARTCHAR oacute
ENCODING 243
SWIDTH 685 0
DWIDTH 5 0
BBX 5 7 0 -1
BITMAP
20
40
60
90
90
60
00
ENDCHAR
STARTCHAR ocircumflex
ENCODING 244
SWIDTH 685 0
DWIDTH 5 0
BBX 5 7 0 -1
BITMAP
60
00
60
90
90
60
00
ENDCHAR
STARTCHAR otilde
ENCODING 245
SWIDTH 685 0
DWIDTH 5 0
BBX 5 7 0 -1
BITMAP
50
a0
60
90
90
60
00
ENDCHAR
STARTCHAR odiaeresis
ENCODING 246
SWIDTH 685 0
DWIDTH 5 0
BBX 5 7 0 -1
BITMAP
a0
00
60
90
90
60
00
ENDCHAR
STARTCHAR division
ENCODING 247
SWIDTH 685 0
DWIDTH 5 0
BBX 5 7 0 -1
BITMAP
00
60
00
f0
00
60
00
ENDCHAR
STARTCHAR oslash
ENCODING 248
SWIDTH 685 0
DWIDTH 5 0
BBX 5 7 0 -1
BITMAP
00
00
70
b0
d0
e0
00
ENDCHAR
STARTCHAR ugrave
ENCODING 249
SWIDTH 685 0
DWIDTH 5 0
BBX 5 7 0 -1
BITMAP
40
20
90
90
90
70
00
ENDCHAR
STARTCHAR uacute
ENCODING 250
SWIDTH 685 0
DWIDTH 5 0
BBX 5 7 0 -1
BITMAP
20
40
90
90
90
70
00
ENDCHAR
STARTCHAR ucircumflex
ENCODING 251
SWIDTH 685 0
DWIDTH 5 0
BBX 5 7 0 -1
BITMAP
60
00
90
90
90
70
00
ENDCHAR
STARTCHAR udiaeresis
ENCODING 252
SWIDTH 685 0
DWIDTH 5 0
BBX 5 7 0 -1
BITMAP
50
00
90
90
90
70
00
ENDCHAR
STARTCHAR yacute
ENCODING 253
SWIDTH 685 0
DWIDTH 5 0
BBX 5 7 0 -1
BITMAP
20
40
90
90
50
20
40
ENDCHAR
STARTCHAR thorn
ENCODING 254
SWIDTH 685 0
DWIDTH 5 0
BBX 5 7 0 -1
BITMAP
00
80
e0
90
90
e0
80
ENDCHAR
STARTCHAR ydiaeresis
ENCODING 255
SWIDTH 685 0
DWIDTH 5 0
BBX 5 7 0 -1
BITMAP
50
00
90
90
50
20
40
ENDCHAR
ENDFONT
